<svg width="928" height="548" viewBox="0 0 928 548" fill="none" xmlns="http://www.w3.org/2000/svg">
<rect width="928" height="548" fill="black"/>
<path d="M343.081 183.536C345.377 176.215 350.296 169.769 357.084 165.187C363.872 160.605 372.154 158.139 380.66 158.168H399.708C403.145 158.168 406.441 159.389 408.871 161.561C411.302 163.733 412.667 166.679 412.667 169.752V215.853C412.718 221.262 411.389 226.61 408.779 231.491C405.573 237.38 400.554 242.328 394.31 245.755C388.066 249.181 380.858 250.944 373.533 250.835C347.616 250.835 328.956 228.827 335.953 206.471L343.081 183.536ZM438.583 158.168C435.147 158.168 431.851 159.389 429.421 161.561C426.99 163.733 425.625 166.679 425.625 169.752V216.085C425.625 225.301 429.721 234.14 437.011 240.657C444.302 247.174 454.19 250.835 464.5 250.835C474.743 250.835 484.573 247.222 491.852 240.78C499.132 234.338 503.273 225.588 503.375 216.432V169.752C503.375 166.679 502.01 163.733 499.58 161.561C497.15 159.389 493.854 158.168 490.417 158.168H438.583ZM529.292 158.168C525.855 158.168 522.559 159.389 520.129 161.561C517.699 163.733 516.333 166.679 516.333 169.752V215.853C516.332 216.046 516.332 216.239 516.333 216.432C516.297 221.008 517.29 225.544 519.252 229.771C521.214 233.997 524.106 237.828 527.755 241.037C531.405 244.246 535.739 246.766 540.499 248.449C545.26 250.132 550.35 250.944 555.468 250.835C581.384 250.835 600.044 228.827 593.047 206.471L585.92 183.536C583.623 176.215 578.704 169.769 571.916 165.187C565.128 160.605 556.846 158.139 548.341 158.168H529.292Z" fill="white"/>
<path d="M581.125 267.283V355.085C581.125 364.301 577.029 373.14 569.739 379.657C562.448 386.173 552.56 389.835 542.25 389.835H506.615C505.755 389.835 504.931 389.529 504.324 388.986C503.716 388.443 503.375 387.707 503.375 386.939V320.335C503.375 314.19 500.644 308.298 495.784 303.953C490.924 299.609 484.332 297.168 477.458 297.168H451.542C444.668 297.168 438.076 299.609 433.216 303.953C428.356 308.298 425.625 314.19 425.625 320.335V386.939C425.625 388.56 424.2 389.835 422.385 389.835H386.75C376.44 389.835 366.552 386.173 359.261 379.657C351.971 373.14 347.875 364.301 347.875 355.085V267.283C347.875 265.198 350.467 263.808 352.67 264.503C363.527 268.427 375.463 269.31 386.894 267.034C398.326 264.759 408.715 259.433 416.684 251.761C417.98 250.371 420.571 250.371 421.867 251.761C427.313 257.003 433.91 261.184 441.245 264.043C448.581 266.902 456.497 268.378 464.5 268.378C472.503 268.378 480.419 266.902 487.755 264.043C495.09 261.184 501.687 257.003 507.133 251.761C508.429 250.371 511.02 250.371 512.316 251.761C520.275 259.447 530.664 264.783 542.1 267.059C553.535 269.335 565.476 268.443 576.33 264.503C578.533 263.692 581.125 265.198 581.125 267.283Z" fill="white"/>
</svg>
