<svg width="928" height="548" viewBox="0 0 928 548" fill="none" xmlns="http://www.w3.org/2000/svg">
<rect width="928" height="548" fill="#FF9900"/>
<path d="M412.25 390.303C427.965 380.731 445.82 375.689 464 375.689C482.18 375.689 500.035 380.731 515.75 390.303C518.378 391.742 521.436 392.063 524.285 391.197C527.133 390.332 529.553 388.348 531.037 385.659C532.521 382.97 532.956 379.784 532.25 376.768C531.545 373.751 529.753 371.137 527.25 369.47C520.35 365.256 512.99 361.764 505.4 358.994C511.61 355.382 517.475 351.167 522.88 346.11C528.35 349.204 534.365 351.1 540.557 351.68C546.75 352.261 552.99 351.514 558.898 349.486C564.806 347.458 570.257 344.191 574.92 339.883C579.582 335.576 583.357 330.32 586.015 324.435C586.895 322.489 587.101 320.283 586.597 318.196C586.093 316.109 584.912 314.27 583.255 312.995C576.464 307.762 568.426 304.595 560.025 303.843C569.496 300.317 577.603 293.64 583.106 284.833C588.609 276.026 591.207 265.573 590.5 255.075C590.365 252.854 589.461 250.76 587.958 249.187C586.455 247.613 584.456 246.667 582.335 246.525C576.094 246.109 569.837 247.01 563.935 249.174C572.453 241.179 577.812 230.14 578.961 218.223C580.11 206.305 576.965 194.368 570.145 184.751C568.928 183.016 567.172 181.779 565.178 181.252C563.185 180.725 561.078 180.94 559.22 181.861C550.595 186.196 543.465 193.301 538.865 201.971V201.248C538.869 193.999 537.311 186.843 534.307 180.312C531.302 173.781 526.928 168.045 521.511 163.531C516.095 159.016 509.775 155.84 503.023 154.24C496.271 152.639 489.26 152.655 482.515 154.286C480.614 154.735 478.908 155.827 477.66 157.395C476.413 158.962 475.694 160.917 475.615 162.956C475.073 175.478 479.215 187.727 487.16 197.103C495.105 206.479 506.227 212.242 518.165 213.17C528.4 228.824 533.115 248.693 533.115 267.478C533.115 311.55 501.49 345.748 464.115 345.748C426.74 345.748 395.115 311.55 395.115 267.478C395.115 248.693 399.83 228.824 410.065 213.17C421.982 212.213 433.076 206.436 440.997 197.064C448.917 187.691 453.043 175.458 452.5 162.956C452.421 160.917 451.702 158.962 450.455 157.395C449.207 155.827 447.501 154.735 445.6 154.286C438.8 152.664 431.737 152.679 424.942 154.329C418.148 155.979 411.8 159.222 406.375 163.812C400.951 168.402 396.591 174.221 393.625 180.831C390.659 187.44 389.163 194.668 389.25 201.971C384.593 193.271 377.484 186.29 368.895 181.982C367.037 181.06 364.93 180.845 362.937 181.372C360.943 181.9 359.187 183.137 357.97 184.872C351.138 194.492 347.997 206.445 349.168 218.371C350.339 230.297 355.736 241.331 364.295 249.295C358.398 247.111 352.137 246.209 345.895 246.645C343.754 246.759 341.727 247.693 340.2 249.269C338.673 250.846 337.753 252.955 337.615 255.195L337.5 258.567C337.489 268.501 340.411 278.195 345.867 286.322C351.323 294.449 359.045 300.611 367.975 303.964C359.35 304.686 351.3 307.938 344.745 313.115C341.295 315.765 340.145 320.581 341.985 324.555C344.668 330.417 348.457 335.649 353.123 339.936C357.789 344.224 363.235 347.478 369.134 349.504C375.033 351.529 381.262 352.283 387.447 351.72C393.631 351.158 399.643 349.29 405.12 346.23C410.525 351.288 416.39 355.623 422.715 359.115C415.01 361.884 407.765 365.376 400.75 369.591C399.376 370.344 398.161 371.38 397.179 372.637C396.197 373.894 395.468 375.346 395.036 376.906C394.604 378.465 394.477 380.101 394.664 381.713C394.852 383.325 395.348 384.881 396.124 386.287C396.9 387.693 397.94 388.92 399.181 389.894C400.422 390.869 401.838 391.57 403.345 391.957C404.851 392.343 406.417 392.406 407.947 392.143C409.477 391.879 410.941 391.294 412.25 390.423V390.303Z" fill="white"/>
</svg>
